<?xml version="1.0" encoding="utf-8"?>
<!-- Generator: Adobe Illustrator 27.5.0, SVG Export Plug-In . SVG Version: 6.00 Build 0)  -->
<svg version="1.1" id="Layer_1" xmlns:vectornator="http://vectornator.io"
	 xmlns="http://www.w3.org/2000/svg" xmlns:xlink="http://www.w3.org/1999/xlink" x="0px" y="0px" viewBox="0 0 510.2 510.2"
	 style="enable-background:new 0 0 510.2 510.2;" xml:space="preserve">
<style type="text/css">
	.st0{fill:none;stroke:#000000;stroke-linecap:round;stroke-linejoin:round;stroke-miterlimit:6.0598;}
</style>
<g id="Layer-1" vectornator:layerName="Layer 1">
	<g vectornator:layerName="Group 1">
		<path vectornator:layerName="Curve 82" class="st0" d="M91.1,236.8c2.5-0.5,4.2-6.3,5-9.8c1.2-5.3,2.4-15.4-2.5-16
			c-12.5-1.8-30.1,5.8-40,13.9c-22,18-43.4,47-25.2,64.2c6.8,6.5,22.9,6.4,29.8,6.3c22.9-0.4,43.4-8.5,65.9-11.6
			c3.5-0.5,7.2-1.9,10.6-0.9c1.6,0.4-13.1,6.4-16.1-1.6c-4.5-11.7,5.2-20.8,14.4-23.4c20.2-5.9,68.2,11.8,27.4,28.7
			c-4.6,1.9-9.7,1.8-14.5,2.7"/>
		<path vectornator:layerName="Curve 83" class="st0" d="M230.8,264.1c16.3-14.2-33.9-12.4-37,4.7c-2.5,13.7,51.7,10.7,41.1,15.7
			c-4.3,2-8.5,4-12.9,5.6c-4.7,1.7-9.5,3.2-14.4,4.2c-3.5,0.7-7.1,0.6-10.6,0.9"/>
		<path vectornator:layerName="Curve 84" class="st0" d="M259.3,289.8c-0.7-9.6,1.9-19.3,4.7-28.5c0.6-1.9,0.5,3.9,0.4,5.9
			c-0.1,2.5-0.5,5-0.8,7.5c-0.5,4-0.4,8.2-1.8,12C261.2,287.9,258.9,291.1,259.3,289.8c2.3-8.2,12.3-25.4,22.4-22.6
			c5.9,1.6,2.4,11.4,6.3,14.2c3.9,2.7,14-8.2,18-9c11.7-2.2,18.2,15.3,21.8,24.7"/>
		<path vectornator:layerName="Curve 85" class="st0" d="M352,299.5c4.8-13.1,3.5-33.2,4.6-47.7"/>
		<path vectornator:layerName="Curve 89" class="st0" d="M425.1,265.2c-6.1-2.5-44.5,2.1-41.5,16.9c2,9.7,17.1,11.4,23.6,12.7
			c27.1,5.7,54.1-1.8,81.5,1.8"/>
		<path vectornator:layerName="Curve 87" class="st0" d="M355.1,232.6c-9.1,2.6-15.7-6-3.5-11.5C355,219.5,375.3,226.8,355.1,232.6z
			"/>
		<path vectornator:layerName="Curve 88" class="st0" d="M354.5,226.2c3.6-2.2,6.8-5.3,10.8-6.9c2.6-1.1,5.5-1.3,8.2-0.9
			c5,0.8-5.1,8-6.2,8.5c-7.1,3.2-18.8,10.8-26.7,10.4c-6-0.3,0.4-4.4,2.4-5.5C349.5,228.5,352.8,227.2,354.5,226.2z"/>
	</g>
</g>
</svg>
